HIERARCHY
ROOT Hips
{
	OFFSET 0.000000 88.474243 0.000000
	CHANNELS 6 Xposition Yposition Zposition Zrotation Yrotation Xrotation 
	JOINT Hips_Spine
	{
		OFFSET 0.000000 0.000000 0.000000
		CHANNELS 3 Zrotation Yrotation Xrotation
		JOINT Spine
		{
			OFFSET 0.005100 8.711998 -0.691000
			CHANNELS 3 Zrotation Yrotation Xrotation
			JOINT Spine1
			{
				OFFSET -0.009200 8.660301 -1.275000
				CHANNELS 3 Zrotation Yrotation Xrotation
				JOINT Spine2
				{
					OFFSET 0.006300 9.852501 -1.857000
					CHANNELS 3 Zrotation Yrotation Xrotation
					JOINT Spine2_Neck
					{
						OFFSET 0.000000 0.000000 0.000000
						CHANNELS 3 Zrotation Yrotation Xrotation
						JOINT Neck
						{
							OFFSET 0.016300 11.420799 -0.263300
							CHANNELS 3 Zrotation Yrotation Xrotation
							End Site #name: Head
							{
								OFFSET -0.019200 9.262405 2.362500
							}
						}
					}
					JOINT Spine2_LeftShoulder
					{
						OFFSET 0.000000 0.000000 0.000000
						CHANNELS 3 Zrotation Yrotation Xrotation
						JOINT LeftShoulder
						{
							OFFSET 5.616900 6.732201 -0.345700
							CHANNELS 3 Zrotation Yrotation Xrotation
							JOINT LeftArm
							{
								OFFSET 10.664888 -0.183372 -2.440700
								CHANNELS 3 Zrotation Yrotation Xrotation
								JOINT LeftForeArm
								{
									OFFSET 27.459126 0.000000 0.000000
									CHANNELS 3 Zrotation Yrotation Xrotation
									End Site #name: LeftHand
									{
										OFFSET 21.306858 0.000000 0.000000
									}
								}
							}
						}
					}
					JOINT Spine2_RightShoulder
					{
						OFFSET 0.000000 0.000000 0.000000
						CHANNELS 3 Zrotation Yrotation Xrotation
						JOINT RightShoulder
						{
							OFFSET -5.580300 6.737503 -0.344400
							CHANNELS 3 Zrotation Yrotation Xrotation
							JOINT RightArm
							{
								OFFSET -10.679335 -0.188484 -2.383900
								CHANNELS 3 Zrotation Yrotation Xrotation
								JOINT RightForeArm
								{
									OFFSET -27.503529 0.000000 0.000000
									CHANNELS 3 Zrotation Yrotation Xrotation
									End Site #name: RightHand
									{
										OFFSET -21.306808 0.000000 0.000000
									}
								}
							}
						}
					}
				}
			}
		}
	}
	JOINT Hips_LeftUpLeg
	{
		OFFSET 0.000000 0.000000 0.000000
		CHANNELS 3 Zrotation Yrotation Xrotation
		JOINT LeftUpLeg
		{
			OFFSET 6.857700 -6.739601 0.312100
			CHANNELS 3 Zrotation Yrotation Xrotation
			JOINT LeftLeg
			{
				OFFSET -0.367590 -34.731552 -4.572400
				CHANNELS 3 Zrotation Yrotation Xrotation
				End Site #name: LeftFoot
				{
					OFFSET 0.367590 -34.656704 -6.067400
				}
			}
		}
	}
	JOINT Hips_RightUpLeg
	{
		OFFSET 0.000000 0.000000 0.000000
		CHANNELS 3 Zrotation Yrotation Xrotation
		JOINT RightUpLeg
		{
			OFFSET -6.876100 -6.733299 0.301000
			CHANNELS 3 Zrotation Yrotation Xrotation
			JOINT RightLeg
			{
				OFFSET 0.347353 -34.795158 -4.515900
				CHANNELS 3 Zrotation Yrotation Xrotation
				End Site #name: RightFoot
				{
					OFFSET -0.347353 -34.589367 -6.070300
				}
			}
		}
	}
}
MOTION
Frames: 7
Frame Time: 0.041667
0.470602 0.774142 -1.143745 2.112728 -6.810996 -7.024571 -0.000000 0.000000 -0.000000 -2.752063 -0.280270 -3.155107 2.150130 -1.957037 -6.199864 0.000000 0.000000 0.000000 2.581478 -1.422031 -6.113042 3.557867 -4.443292 -4.636617 1.134825 -1.710404 -6.883419 -17.973515 -0.455890 9.626999 -53.502774 12.566084 -4.053163 -0.608279 -21.093307 8.182961 1.595107 -1.781205 -3.372923 3.484398 5.833171 1.425813 67.507863 -1.138072 -8.250568 0.345799 46.390781 -0.728202 -0.000000 -0.000000 -0.000000 -9.976229 25.998631 -1.143658 -1.936926 1.262170 18.409629 0.000000 0.000000 0.000000 -7.085093 7.621669 -19.270442 5.131472 -3.881245 15.351691 
0.241455 0.780179 -1.216791 1.817203 -7.298880 -7.110408 -0.000000 0.000000 -0.000000 -1.807192 -0.284793 -3.820667 2.343879 -1.978616 -6.124411 0.000000 0.000000 0.000000 2.758825 -1.372530 -6.075822 3.508270 -4.501490 -4.378834 1.333839 -1.659350 -6.763225 -17.422965 -0.525868 9.743062 -54.494152 13.527188 -4.746090 -0.627388 -21.790476 8.041747 1.774498 -1.741932 -3.379916 3.568071 5.962239 1.462545 67.317334 -1.191428 -7.995886 0.356769 46.368474 -0.724803 -0.000000 -0.000000 -0.000000 -9.279027 26.168735 -0.817538 -2.089195 1.014794 18.629336 0.000000 0.000000 0.000000 -6.298070 7.980441 -19.507926 5.268812 -4.219508 15.371628 
0.034046 0.782552 -1.289286 1.493820 -7.594112 -7.141599 -0.000000 0.000000 -0.000000 -0.869559 -0.322549 -4.529457 2.542984 -1.988724 -6.038458 0.000000 0.000000 0.000000 2.940414 -1.322033 -6.027863 3.489933 -4.602004 -4.054919 1.544164 -1.609936 -6.632554 -16.863089 -0.627539 9.811120 -55.472532 14.423022 -5.381279 -0.650535 -22.398178 7.898734 1.962751 -1.703246 -3.379788 3.684891 6.077810 1.487338 67.136566 -1.211025 -7.729155 0.365057 46.398535 -0.725611 -0.000000 -0.000000 -0.000000 -8.624734 26.337511 -0.320214 -2.240821 0.730418 18.489304 0.000000 0.000000 0.000000 -5.492501 8.335905 -19.684831 5.469045 -4.484382 15.364929 
-0.141555 0.782969 -1.359780 1.185165 -8.095715 -7.088612 -0.000000 0.000000 -0.000000 0.073572 -0.323333 -5.146027 2.742502 -1.989328 -5.928157 0.000000 0.000000 0.000000 3.115560 -1.265909 -5.955729 3.463346 -4.703173 -3.688131 1.752154 -1.553090 -6.476596 -16.281343 -0.773421 9.864437 -56.402233 15.189277 -5.996815 -0.680248 -22.978904 7.756093 2.148263 -1.660808 -3.365125 3.853620 6.209139 1.512400 66.904617 -1.208348 -7.513768 0.370814 46.546358 -0.728190 -0.000000 -0.000000 -0.000000 -7.962907 26.565562 0.270223 -2.401148 0.382186 18.230659 0.000000 -0.000000 0.000000 -4.682409 8.755865 -19.907348 5.671083 -4.721300 15.359544 
-0.276320 0.782934 -1.428515 0.947342 -8.853214 -7.036531 -0.000000 -0.000000 -0.000000 0.767839 -0.350321 -5.822099 2.932968 -1.985536 -5.799116 0.000000 0.000000 0.000000 3.259772 -1.203639 -5.860370 3.399646 -4.863573 -3.202738 1.952957 -1.492035 -6.299917 -15.702539 -0.934184 9.888055 -57.144026 15.650846 -6.746549 -0.716235 -23.539881 7.601800 2.325893 -1.612631 -3.336507 4.089577 6.371769 1.546396 66.597909 -1.337054 -7.419681 0.380975 46.906001 -0.730003 -0.000000 -0.000000 -0.000000 -7.327794 26.766465 0.905516 -2.537075 0.119110 17.918159 0.000000 -0.000000 0.000000 -3.935597 9.225486 -20.123875 5.859035 -4.944871 15.411170 
-0.363994 0.783322 -1.497795 0.804506 -10.214658 -6.992497 -0.000000 -0.000000 -0.000000 1.377095 -0.361307 -6.396865 3.107718 -1.980537 -5.653867 0.000000 0.000000 0.000000 3.377457 -1.136524 -5.734728 3.306948 -5.029943 -2.607631 2.140160 -1.432187 -6.106746 -15.132002 -1.114146 9.892413 -57.848756 15.976614 -7.344968 -0.758745 -24.092154 7.447553 2.482916 -1.564069 -3.288783 4.349476 6.561145 1.588774 66.228492 -1.550161 -7.387826 0.398163 47.484497 -0.724983 -0.000000 -0.000000 -0.000000 -6.743045 26.882702 1.565930 -2.682709 -0.060549 17.547996 0.000000 -0.000000 0.000000 -3.305232 9.746758 -20.367282 6.024364 -5.162060 15.566061 
-0.399097 0.784711 -1.568425 0.777011 -12.179821 -6.950178 -0.000000 -0.000000 0.000000 1.820944 -0.432508 -6.657175 3.261676 -1.985515 -5.499251 0.000000 0.000000 0.000000 3.479819 -1.077507 -5.606009 3.155472 -5.149831 -1.939387 2.312164 -1.382247 -5.914693 -14.593175 -1.281095 9.869191 -58.447344 16.185476 -7.838022 -0.803724 -24.596899 7.301361 2.621090 -1.518563 -3.231831 4.651296 6.757317 1.633310 65.863506 -1.783834 -7.370378 0.419435 48.157128 -0.715747 -0.000000 -0.000000 -0.000000 -6.267231 26.950007 2.223285 -2.855599 -0.165959 17.153431 0.000000 -0.000000 0.000000 -2.813651 10.301672 -20.697589 6.162920 -5.336065 15.925472 
